<svg width="130" height="129" viewBox="0 0 130 129" fill="none" xmlns="http://www.w3.org/2000/svg">
<path d="M127.197 43.1633C116.114 33.0608 90.0926 18.7947 86.9087 18.06C86.1127 17.8763 85.3168 17.6926 84.5208 17.815C83.7861 17.8763 83.1126 18.1824 82.4391 18.4885C79.5002 19.8356 77.2347 21.305 74.6632 23.2643L69.8262 113.33C74.4183 112.351 79.0716 111.004 83.2963 109.228L83.4187 109.044C87.8271 98.5132 92.6641 89.329 97.6848 81.3694C97.8685 81.1245 97.9909 80.8796 98.1746 80.6347C98.2358 80.5123 98.3583 80.3898 98.4195 80.2061C98.7869 79.6551 99.1543 79.0428 99.5216 78.4917C109.134 63.8583 119.115 53.817 127.197 47.6942C127.87 47.2044 128.605 46.5921 128.727 45.7349C128.85 44.694 127.993 43.8368 127.258 43.1633H127.197Z" fill="#8CB04F"/>
<path d="M127.198 43.1633C116.115 33.0608 90.0935 18.7947 86.9097 18.06C86.1137 17.8763 85.3178 17.6926 84.5218 17.815C83.7871 17.8763 83.1136 18.1824 82.4401 18.4885C79.5011 19.8356 77.2357 21.305 74.6641 23.2643L74.4805 26.142C75.705 25.2848 81.7053 21.305 85.379 20.5703C89.2976 19.8356 118.197 37.959 128.116 46.8982C128.422 46.5921 128.606 46.2247 128.667 45.7961C128.789 44.7552 127.932 43.8981 127.198 43.2246V43.1633Z" fill="white"/>
<g style="mix-blend-mode:color-burn" opacity="0.3">
<path d="M100.073 47.7554L74.6632 73.3486L70.9283 93.3088L69.8262 113.269C74.4183 112.289 79.0716 110.942 83.2963 109.167L83.4187 108.983C83.9698 107.697 84.5208 106.412 85.0719 105.126C90.9497 85.5941 109.563 56.1436 110.726 53.5108C112.012 50.5106 110.175 46.041 110.175 46.041L100.134 47.7554H100.073Z" fill="#161515"/>
</g>
<path d="M109.931 45.1835C109.625 44.3263 108.89 43.6528 108.156 42.9793C105.706 40.7751 81.2766 26.9989 75.2763 23.5701C73.8068 22.713 68.5412 19.9577 66.8881 19.8965C65.8472 19.8965 58.01 27.4887 56.0508 29.7541C38.0498 51.0614 22.3755 81.1242 16.0078 104.085C22.7429 110.82 35.7844 115.657 48.3361 115.657C55.0711 115.657 66.8881 114.493 77.4805 111.187C83.1134 94.1045 100.747 61.5313 108.523 50.143C109.564 48.6123 110.605 46.7755 109.931 45.0611V45.1835Z" fill="#8CB04F"/>
<path d="M110.115 45.9782C110.115 45.6721 110.053 45.4272 109.931 45.121C109.625 44.2639 108.89 43.5903 108.155 42.9168C105.706 40.7126 81.2764 26.9364 75.2761 23.5076C73.8066 22.6505 68.541 19.8952 66.8879 19.834C65.847 19.834 58.0098 27.4262 56.0506 29.6917C52.0708 34.4062 48.1522 39.6105 44.4785 45.0598C44.6622 44.8761 61.01 24.0587 67.99 22.7729C71.6636 22.0382 110.115 45.9782 110.115 45.9782Z" fill="white"/>
<path d="M100.072 109.656C81.2143 128.943 46.3145 132.678 22.4969 122.514C12.2106 118.106 2.65908 105.982 0.761025 91.1653C-0.341075 82.3485 2.59786 70.9602 6.57766 63.0618C10.5575 55.1022 17.1088 48.4283 25.0684 44.5098C17.4762 50.755 8.4145 62.0821 6.63889 79.4708C5.90416 86.9406 9.39414 95.0226 13.6189 101.207C19.1906 109.411 34.0689 115.656 48.3962 115.656C60.0295 115.656 87.0309 112.105 96.1538 100.288C99.95 95.39 102.032 87.1855 97.6845 81.2464C98.2968 80.2668 98.9091 79.3484 99.5214 78.3687C108.399 87.3692 107.848 101.635 100.134 109.595L100.072 109.656Z" fill="#EDD24A"/>
<g style="mix-blend-mode:color-burn" opacity="0.3">
<path d="M100.072 105.371C81.2138 124.657 46.314 128.392 22.4964 118.228C12.2101 113.82 2.6586 101.697 0.760537 86.8798C0.69931 86.2675 0.63808 85.6552 0.576852 85.043C0.454397 87.1859 0.515626 89.2065 0.760537 91.1657C2.6586 105.983 12.2101 118.106 22.4964 122.514C46.3752 132.678 81.275 128.943 100.072 109.657C104.419 105.187 106.501 98.758 105.889 92.3291C105.46 97.2273 103.439 101.881 100.072 105.371Z" fill="#161515"/>
</g>
<path d="M48.3356 115.717C52.744 115.717 59.3566 115.227 66.3366 113.942C72.2144 96.7979 85.3172 66.7351 93.3992 56.3876C93.6441 56.0202 93.9503 55.6529 93.8891 55.163C93.8891 54.612 93.338 54.3059 92.9094 53.9997C89.5419 51.1832 88.8072 47.2647 89.9092 43.8359C84.2763 40.7133 79.9904 37.1009 74.6023 34.5293C72.5206 37.5907 70.3776 39.2438 66.3366 39.3051C63.765 39.3051 61.6833 37.8356 61.4996 37.8968C60.7036 38.203 59.724 39.8561 59.1729 40.5908C47.1723 55.3467 32.4164 84.3075 23.5996 109.595C30.5183 113.329 39.5188 115.717 48.3356 115.717Z" fill="#DAE394"/>
<g style="mix-blend-mode:color-burn" opacity="0.3">
<path d="M18.1495 97.1055C17.3536 99.4934 16.6188 101.881 15.9453 104.147C22.6804 110.882 35.7219 115.719 48.2736 115.719C55.0086 115.719 66.8256 114.555 77.418 111.249C77.9078 109.78 78.5201 108.188 79.1324 106.473C57.3965 113.637 31.8645 112.841 18.0883 97.1055H18.1495Z" fill="#161515"/>
</g>
<path d="M73.009 58.4691C75.7818 58.4691 78.0296 56.2213 78.0296 53.4484C78.0296 50.6756 75.7818 48.4277 73.009 48.4277C70.2361 48.4277 67.9883 50.6756 67.9883 53.4484C67.9883 56.2213 70.2361 58.4691 73.009 58.4691Z" fill="#8CB04F"/>
<path d="M69.4584 72.1229C68.7237 70.286 67.4379 68.6329 65.6623 67.7145C65.846 67.2859 66.0909 66.796 66.2746 66.3675C66.397 66.1838 66.4582 66.0001 66.4582 65.8164C66.4582 65.6327 66.4582 65.3878 66.4582 65.2041C66.3358 64.8368 66.0909 64.4694 65.7847 64.2857C65.4174 64.102 64.9888 63.9796 64.6214 64.102C64.254 64.2245 63.8867 64.4694 63.703 64.7755C63.4581 65.3878 63.152 66.0001 62.907 66.5511C60.8865 66.0001 58.6823 65.8776 56.723 66.5511C54.1515 67.4696 51.6411 69.4288 50.9676 72.1841C50.2941 74.9393 51.5187 77.6946 53.7841 79.2865C56.3557 81.1233 59.7232 81.6744 62.356 83.3888C64.254 84.6133 64.0704 87.0624 62.6621 88.5319C61.009 90.3075 58.4986 90.8585 56.2332 90.4912C54.825 90.3075 53.478 89.8177 52.1922 89.0829C51.5799 88.7156 50.9676 88.3482 50.4166 87.9196C50.1717 87.6747 49.8655 87.491 49.6206 87.2461C49.6206 87.2461 49.4982 87.1237 49.4369 87.0624C49.4369 87.0624 49.4369 87.0624 49.4369 87.0012C48.8859 86.2052 48.641 85.348 48.641 84.3684C48.641 82.9602 49.2532 81.6132 50.1104 80.5723C50.6003 79.8988 50.7227 79.0416 50.1104 78.4293C49.5594 77.8783 48.4573 77.7558 47.9675 78.4293C46.1919 80.6947 45.0898 83.45 45.8245 86.3277C46.3755 88.6544 48.0899 90.2463 50.1104 91.5321C50.2941 91.6545 50.539 91.777 50.7839 91.8994C50.4166 92.6342 50.0492 93.3689 49.6818 94.1036C49.4982 94.471 49.4369 94.8996 49.4982 95.267C49.6206 95.6343 49.8655 96.0017 50.1717 96.1854C50.539 96.3691 50.9676 96.4915 51.335 96.369C51.7024 96.2466 52.0697 96.0017 52.2534 95.6955C52.682 94.8383 53.1106 93.9812 53.5392 93.124C57.5802 94.3485 62.2948 93.9812 65.1725 90.5524C66.8868 88.4707 67.4379 85.6542 66.1521 83.2051C65.4174 81.8581 64.1928 80.9397 62.8458 80.3274C61.3151 79.6539 59.7844 78.9804 58.2537 78.3069C56.9679 77.7558 55.4985 77.2048 54.6413 76.1027C54.029 75.3679 53.7841 74.3271 53.9066 73.4086C54.2739 71.082 57.0904 69.4288 59.2946 69.3676C60.8253 69.3676 62.4172 69.6737 63.7642 70.286C64.0704 70.4085 64.3765 70.5922 64.6826 70.7758C64.6826 70.7758 64.9276 70.9595 64.9888 70.9595C65.2949 71.2657 65.6623 71.5718 65.9072 71.8779C66.397 72.5515 66.9481 73.6536 67.0705 74.6944C67.2542 76.1027 66.8256 77.5109 66.2133 78.7355C65.2949 80.4498 67.9277 82.0418 68.8461 80.2661C70.1931 77.817 70.6217 74.9393 69.5809 72.3065L69.4584 72.1229Z" fill="#8CB04F"/>
<path d="M53.1725 0.487008C52.0092 2.4463 51.0908 6.48733 51.0908 7.46697C48.5192 7.58943 45.3966 8.44661 43.8047 9.42626C47.0498 11.508 50.4173 11.6917 50.8459 12.0591C51.152 12.304 50.9071 16.896 53.4174 19.2227C54.8869 17.2022 55.7441 15.1817 55.7441 12.2427C57.336 11.9978 62.6016 10.4059 62.5404 9.85485C62.5404 9.42626 59.2341 7.83434 55.8666 7.28329C55.6216 5.07909 54.642 2.14016 53.2338 0.425781" fill="#EDD24A"/>
<path d="M55.8049 7.28329C55.56 5.07909 54.5804 2.14016 53.1721 0.425781C52.9272 0.793148 52.8048 1.09928 52.6211 1.5891C54.213 3.7933 54.5804 7.5282 54.8253 8.26293C55.0702 8.93643 58.2541 8.50784 61.6828 10.4059C62.1726 10.161 62.54 9.97731 62.4788 9.79362C62.4788 9.36503 59.1725 7.77311 55.8049 7.22206V7.28329Z" fill="white"/>
<path d="M33.5184 6.18164C32.1714 8.50829 31.1306 19.3456 31.0693 20.5089C28.008 20.6926 24.3343 21.6723 22.375 22.8968C26.2323 25.4072 30.2122 25.5908 30.702 26.0194C31.0693 26.3256 31.1918 38.1425 34.1307 40.8978C35.8451 38.5099 36.4574 29.6319 36.4574 26.2031C38.3554 25.897 44.6007 24.0601 44.5394 23.3254C44.5394 22.8356 40.6209 20.8763 36.5798 20.3253C36.3349 17.6925 35.1104 8.20216 33.396 6.18164" fill="#EDD24A"/>
<path d="M36.7024 20.3858C36.4575 17.753 35.2329 8.2627 33.5185 6.24219C33.2736 6.67078 33.0899 7.03815 32.9062 7.95656C34.988 14.1406 34.9268 20.6919 35.6615 21.6716C36.335 22.59 40.4373 22.3451 43.5599 24.1819C44.2334 23.8758 44.662 23.6309 44.662 23.4472C44.662 22.9574 40.7434 20.9981 36.7024 20.447V20.3858Z" fill="white"/>
<path d="M16.3748 104.208C18.7627 95.6976 22.0078 87.3706 25.6814 79.3498C29.7224 70.4105 34.3758 61.7774 39.5801 53.4504C44.662 45.2459 50.1725 37.2863 56.4178 30.0002C58.3158 27.7348 60.52 25.7143 62.663 23.6938C63.7038 22.7141 64.7447 21.7345 65.9081 20.9385C66.153 20.7548 66.5203 20.4487 66.8265 20.3262C67.1326 20.265 67.7449 20.5099 68.1123 20.6324C70.8063 21.5508 73.4391 23.0203 75.8882 24.4285C78.0311 25.653 80.1741 26.8776 82.2558 28.0409C88.0113 31.3472 93.7667 34.5923 99.4609 38.0211C101.604 39.3068 103.808 40.5926 105.89 41.9396C106.441 42.307 107.053 42.6744 107.604 43.103C108.155 43.5316 108.767 44.0826 109.135 44.6949C109.992 45.9807 109.625 47.4501 108.951 48.7359C108.278 50.0217 107.359 51.185 106.563 52.4708C105.829 53.6341 105.033 54.8587 104.359 56.0832C102.583 59.0222 100.869 61.9611 99.2159 64.9C95.2361 71.9412 91.44 79.1049 87.8276 86.391C84.4601 93.1872 81.2762 100.045 78.5822 107.086C78.0311 108.494 77.5413 109.902 77.0515 111.311C76.8678 111.8 77.6638 111.984 77.7862 111.494C80.0517 104.576 83.113 97.9018 86.2357 91.3504C89.8481 83.8194 93.7054 76.4108 97.6853 69.1247C100.93 63.2469 104.237 57.4303 107.91 51.8585C108.89 50.3278 110.176 48.7971 110.359 46.8991C110.543 45.1235 109.38 43.7765 108.094 42.6744C106.625 41.511 104.971 40.5926 103.441 39.613C97.8077 36.1842 92.1135 32.9391 86.3581 29.6329C81.766 27.0001 77.2352 24.1836 72.4594 21.8569C70.9899 21.1222 69.398 20.3262 67.8061 19.8976C66.8265 19.5915 66.3366 19.714 65.5407 20.3262C63.0916 22.1018 60.8874 24.3673 58.7444 26.5102C56.1728 29.0206 53.9074 31.7758 51.7032 34.5923C48.7031 38.4497 45.8254 42.4295 43.0701 46.5317C37.4372 54.9199 32.4165 63.6755 27.9469 72.7372C23.8446 81.0642 20.1709 89.5748 17.2932 98.3916C16.6809 100.351 16.0687 102.31 15.5176 104.269C15.3952 104.759 16.1299 104.943 16.2523 104.453L16.3748 104.208Z" fill="#161515"/>
<path d="M69.8267 72.0019C69.0308 70.0426 67.6838 68.3894 65.8469 67.3485C65.8469 67.5322 65.9082 67.7159 65.9694 67.8996C66.2755 67.1649 66.8266 66.3077 66.8266 65.4505C66.8266 64.7158 66.3368 64.1035 65.6633 63.7973C65.051 63.5524 64.3162 63.6137 63.7652 63.981C63.0305 64.4708 62.7855 65.5729 62.4794 66.3689C62.6019 66.3689 62.7855 66.2464 62.908 66.1852C60.0915 65.4505 57.2138 65.5729 54.6423 67.0424C52.4993 68.267 50.7237 70.2875 50.3563 72.7978C49.9889 75.3694 51.2135 77.8797 53.234 79.4104C55.4994 81.186 58.4384 81.7983 61.0099 83.0841C62.2345 83.6964 63.3366 84.4311 63.2754 85.9618C63.2754 87.37 62.2957 88.5333 61.1324 89.2681C58.4996 90.86 55.0709 90.3089 52.4381 88.9007C51.1523 88.2272 49.6828 87.3088 49.193 85.8393C48.6419 84.3699 49.0705 82.7167 49.8665 81.3697C50.4788 80.3901 51.336 79.4716 50.54 78.3083C50.0502 77.5736 48.9481 77.2674 48.1521 77.6348C47.5398 77.9409 47.1725 78.6145 46.8051 79.1043C46.3765 79.7778 46.0091 80.4513 45.7642 81.186C45.2132 82.5943 45.0295 84.1249 45.2744 85.6556C45.7642 88.5946 47.9684 90.6763 50.4788 92.0846C50.4788 91.9009 50.4175 91.7172 50.3563 91.5335C49.6216 92.9417 47.846 95.4521 50.1114 96.4317C52.2544 97.3501 53.1116 94.4724 53.7851 93.1254C53.6626 93.1254 53.4789 93.2479 53.3565 93.3091C57.5812 94.5949 62.6631 94.1051 65.5408 90.3702C66.949 88.5333 67.5613 86.0842 66.8266 83.8188C65.9694 81.3085 63.8876 80.2064 61.6222 79.1655C60.2752 78.5532 58.9282 78.0022 57.5812 77.3899C56.4179 76.9001 55.1933 76.2878 54.581 75.1857C53.234 72.6141 55.6831 70.3487 58.0098 69.7364C60.3977 69.0629 63.7652 69.8589 65.4183 71.7569C66.3367 72.859 66.8266 74.3897 66.6429 75.798C66.5817 76.5327 66.3367 77.2062 66.0306 77.8185C65.7857 78.3083 65.5408 78.6757 65.5408 79.2267C65.5408 80.9411 67.8674 81.9207 68.9695 80.4513C69.8267 79.3492 70.2553 77.696 70.439 76.349C70.6227 74.8796 70.439 73.3489 69.9492 71.9406C69.7655 71.512 69.0308 71.6957 69.2145 72.1243C69.7655 73.4713 69.888 74.9408 69.7043 76.349C69.5818 76.9613 69.4594 77.5736 69.2757 78.1246C69.092 78.7369 68.7859 79.6553 68.296 80.0839C67.5613 80.6962 66.398 80.0227 66.398 79.1043C66.398 78.5532 66.8266 78.0022 67.0103 77.5123C67.2552 76.9613 67.3776 76.349 67.4389 75.798C67.6838 73.7162 66.7041 71.3283 64.9285 70.165C63.0917 68.9405 60.3977 68.3282 58.1935 68.7568C56.3566 69.1241 54.5198 70.3487 53.7238 72.1243C52.8666 74.0836 53.9075 76.1653 55.6219 77.2062C59.5405 79.6553 67.3776 80.3901 66.2755 86.7577C65.8469 89.4518 63.704 91.656 61.1936 92.5131C58.7445 93.3703 56.0505 93.1866 53.5401 92.5131C53.3565 92.5131 53.1728 92.5131 53.1116 92.6968C52.8054 93.3091 52.4993 93.8602 52.1931 94.4724C51.8258 95.1459 51.5196 95.9419 50.6012 95.7582C48.6419 95.3909 50.4788 92.7581 50.9686 91.8396C51.091 91.656 50.9686 91.411 50.8461 91.2886C48.5807 90.0028 46.4377 88.166 46.0091 85.472C45.7642 84.0637 46.0091 82.5942 46.499 81.3085C46.7439 80.635 47.1112 80.0227 47.4786 79.4104C47.9072 78.7369 48.3358 77.9409 49.2542 78.1859C51.2135 78.6757 49.1318 80.9411 48.7032 81.8595C48.2133 82.9616 48.0297 84.1862 48.3358 85.3495C48.8868 87.7374 51.3972 89.2068 53.5401 90.064C55.928 90.9825 58.6221 91.2274 60.9487 90.064C62.7855 89.2068 64.3775 87.3088 64.0713 85.1658C63.704 82.7779 60.8875 81.9207 58.9282 81.186C56.3566 80.2064 53.5401 79.2267 52.0095 76.7164C50.3563 73.9611 51.1523 70.6548 53.5401 68.6343C56.1117 66.3689 59.5405 65.8791 62.7855 66.7363C62.908 66.7363 63.1529 66.7363 63.2141 66.5526C63.5815 65.6954 63.9489 63.981 65.2347 64.2259C66.949 64.5321 65.7857 66.4301 65.4183 67.2873C65.3571 67.471 65.4183 67.7159 65.5408 67.8384C67.2552 68.7568 68.4797 70.2875 69.2145 72.0631C69.3981 72.4917 70.1329 72.308 69.9492 71.8794L69.8267 72.0019Z" fill="#161515"/>
<path d="M74.8477 23.5718C77.2968 21.735 79.8071 20.0206 82.6236 18.796C84.093 18.1225 85.4401 18.0001 86.9707 18.4899C87.2769 18.5511 87.583 18.6736 87.8892 18.796C90.4607 19.8981 92.9711 21.2451 95.4202 22.5921C103.502 27.0005 111.401 31.7151 118.87 37.0419C120.646 38.3277 122.422 39.6135 124.136 41.0217C124.871 41.634 125.667 42.2463 126.401 42.9198C127.32 43.7157 128.912 44.879 128.177 46.2261C127.687 47.0832 126.646 47.6343 125.85 48.2466C125.177 48.7364 124.565 49.2874 123.891 49.8385C122.483 51.0018 121.136 52.1651 119.789 53.4509C113.237 59.5737 107.421 66.4312 102.278 73.7785C95.4202 83.4525 89.726 93.8612 84.889 104.637C84.2767 106.046 83.6645 107.515 83.0522 108.923C82.8685 109.352 83.6032 109.597 83.7869 109.107C88.6239 97.5961 94.4405 86.5139 101.482 76.2277C106.809 68.4517 112.809 61.1044 119.666 54.6143C121.013 53.3285 122.422 52.1039 123.83 50.8794C125.177 49.716 126.646 48.6752 127.993 47.5118C128.912 46.7159 129.463 45.7362 128.912 44.5729C128.483 43.532 127.504 42.7973 126.708 42.1238C125.116 40.7768 123.524 39.491 121.809 38.2052C114.217 32.511 106.013 27.5516 97.7468 22.9595C94.9304 21.3676 92.0527 19.8369 89.1137 18.4899C88.3178 18.1225 87.5218 17.7552 86.6646 17.5715C85.1951 17.2653 83.9094 17.3878 82.5011 18.0001C81.0929 18.6123 79.6846 19.4083 78.3376 20.2043C76.9906 21.0002 75.7661 21.9186 74.4803 22.8983C74.1129 23.2044 74.4803 23.8779 74.8477 23.5718Z" fill="#161515"/>
<path d="M23.9059 109.72C28.6205 96.1884 34.4371 83.0244 40.9885 70.289C44.0499 64.35 47.2949 58.5333 50.8462 52.9004C52.3769 50.4513 53.9688 48.0634 55.6831 45.6755C57.1526 43.5938 58.8058 41.5732 60.2752 39.5527C60.5201 39.1854 60.8263 38.818 61.1324 38.5119C61.1324 38.5119 61.3773 38.3282 61.4385 38.2669C61.3161 38.2669 61.3773 38.2669 61.4998 38.2669C61.9896 38.4506 62.4794 38.7568 62.9692 38.9404C64.5612 39.5527 66.2143 39.7364 67.9287 39.4915C70.9901 39.0629 73.1331 37.1648 74.8474 34.6545C74.6638 34.6545 74.4801 34.7157 74.2964 34.777C79.6844 37.4098 84.399 41.2059 89.6033 44.0836C89.6033 43.9611 89.4809 43.7774 89.4196 43.655C88.6849 46.1653 88.8074 48.8593 90.0931 51.186C90.7667 52.4718 91.7463 53.5127 92.9096 54.4311C93.277 54.7372 93.5219 55.0433 93.3994 55.5332C93.277 55.8393 93.0321 56.0842 92.8484 56.2679C92.6035 56.6353 92.2973 56.9414 92.0524 57.3088C89.6033 60.7375 87.5216 64.4112 85.5623 68.1461C80.4192 77.8201 75.9495 87.9226 71.7861 98.0252C69.7043 103.168 67.6838 108.434 65.847 113.7C65.6633 114.189 66.398 114.373 66.5817 113.883C70.0104 103.903 74.0515 94.1066 78.3986 84.4939C80.6641 79.5344 82.9907 74.6362 85.5011 69.7992C87.5216 65.9419 89.6645 62.0845 92.1137 58.4721C92.6647 57.6761 93.3382 56.9414 93.8893 56.0842C94.8077 54.6147 93.277 53.88 92.3586 52.9616C89.9095 50.5125 89.1747 47.0837 90.1544 43.8387C90.1544 43.655 90.1544 43.4713 89.9707 43.4101C84.7663 40.5324 80.0518 36.7363 74.6637 34.1035C74.4801 33.981 74.2352 34.1035 74.1127 34.2259C72.4596 36.675 70.3778 38.4506 67.3164 38.7568C65.6633 38.9404 64.1326 38.6343 62.6019 37.9608C61.8059 37.5934 61.3773 37.1648 60.6426 37.7771C59.663 38.5731 58.9894 39.8589 58.1935 40.8385C57.3975 41.8182 56.6628 42.859 55.8668 43.8387C54.1525 46.1653 52.5605 48.492 51.0298 50.9411C43.6213 62.4519 37.3761 74.6974 31.8656 87.1879C28.6205 94.474 25.6816 101.883 23.0488 109.414C22.8651 109.903 23.5998 110.087 23.7835 109.597L23.9059 109.72Z" fill="#161515"/>
<path d="M78.4595 53.4501C78.4595 51.1846 77.0512 49.1641 74.9083 48.3682C72.7653 47.5722 70.2549 48.2457 68.7855 50.0213C67.3772 51.7969 67.1323 54.3073 68.2957 56.2665C69.459 58.2258 71.7244 59.2055 73.9898 58.8381C76.5614 58.3483 78.3982 56.0829 78.3982 53.5113C78.3982 53.0215 77.6635 53.0215 77.6635 53.5113C77.6635 55.4706 76.4389 57.2462 74.6021 57.9197C72.7653 58.5932 70.6835 57.9809 69.3978 56.5114C68.1732 54.9808 67.9895 52.8378 69.0304 51.1846C70.01 49.5315 72.0306 48.6131 73.9286 48.9804C76.1328 49.409 77.7247 51.3683 77.7247 53.5725C77.7247 54.0623 78.5207 54.0623 78.4595 53.5725V53.4501Z" fill="#161515"/>
<path d="M52.8666 0.243605C52.1931 1.46816 51.7032 2.81517 51.3971 4.16218C51.091 5.20305 50.7848 6.30515 50.7848 7.40725L51.1522 7.03988C48.6419 7.22357 45.8254 7.71339 43.6212 9.0604C43.3763 9.24408 43.3763 9.55022 43.6212 9.73391C45.1519 10.7135 46.8663 11.3871 48.5806 11.8156C49.1317 11.9381 49.6827 12.0606 50.2338 12.2442C50.4175 12.2442 50.6011 12.4279 50.4787 12.2442C50.4787 12.3667 50.4787 12.4892 50.5399 12.6116C50.9073 15.0607 51.2134 17.6323 53.0503 19.4691C53.2339 19.6528 53.5401 19.5916 53.6625 19.4079C55.1932 17.2649 55.9892 14.877 55.9892 12.2442C55.8667 12.3667 55.8055 12.4892 55.683 12.6116C56.9076 12.4279 58.1934 11.9993 59.3567 11.632C60.3364 11.3258 61.6834 11.0197 62.4793 10.285C63.2141 9.61145 62.1732 9.0604 61.6221 8.75426C59.8465 7.77462 57.7648 7.16234 55.8055 6.8562C55.928 6.97866 55.9892 7.10111 56.1116 7.22357C55.8055 4.71323 54.9483 2.08044 53.3564 0.121152C53.0503 -0.246215 52.4992 0.304831 52.8053 0.672197C54.2748 2.50903 55.0708 4.95814 55.3157 7.22357C55.3157 7.34602 55.4381 7.59093 55.6218 7.59093C57.3974 7.83585 59.1118 8.3869 60.7037 9.12163C60.9486 9.24408 61.2548 9.36654 61.4997 9.48899C61.6221 9.55022 61.8671 9.79513 61.9895 9.79513C61.9895 9.79513 61.9895 9.79513 62.0507 9.85636C62.0507 9.79513 62.0507 9.67268 62.0507 9.61145L61.9283 9.73391C61.8058 9.73391 61.6221 9.91759 61.4997 9.97882C59.6629 10.836 57.5199 11.4483 55.4994 11.8156C55.3157 11.8156 55.1932 11.9993 55.1932 12.183C55.1932 14.6934 54.3973 16.8976 52.9278 18.9793C53.1115 18.9793 53.3564 18.9793 53.5401 18.9181C52.438 17.816 51.8869 16.3465 51.5808 14.8158C51.3971 13.9586 51.4583 12.8565 51.1522 12.0606C50.9073 11.3871 49.8052 11.3871 49.1929 11.2034C47.2949 10.7748 45.5192 10.1013 43.8661 9.0604V9.73391C45.9478 8.44812 48.5806 7.9583 50.9685 7.77462C51.1522 7.77462 51.3359 7.59093 51.3359 7.40725C51.3359 6.36638 51.642 5.32551 51.9482 4.34586C52.3155 3.06008 52.6829 1.7743 53.3564 0.610971C53.6013 0.182376 52.9278 -0.184989 52.6829 0.243605H52.8666Z" fill="#161515"/>
<path d="M33.2125 5.99878C32.7227 6.9172 32.4778 8.0193 32.2329 8.99894C31.9267 10.5296 31.6818 12.1216 31.4369 13.6523C31.1308 15.9177 30.7634 18.2443 30.7022 20.5098L31.0695 20.1424C28.0694 20.3261 24.7631 20.9383 22.1915 22.5303C21.9466 22.714 21.9466 23.0201 22.1915 23.2038C24.3345 24.5508 26.6611 25.3468 29.1102 25.959C29.4164 26.0203 29.7837 26.0815 30.0899 26.2039C30.2123 26.2039 30.3348 26.2652 30.4572 26.3264C30.5797 26.3264 30.4572 26.3264 30.4572 26.2652C30.5797 26.5713 30.5797 26.9387 30.5797 27.306C30.8858 30.5511 31.1308 33.7962 31.9267 36.98C32.2941 38.4495 32.7839 40.1639 33.9472 41.266C34.1309 41.4496 34.437 41.3884 34.5595 41.2047C35.1718 40.3475 35.4167 39.3067 35.6616 38.327C35.9677 36.98 36.2126 35.633 36.3963 34.2248C36.7025 31.592 36.9474 28.9592 36.9474 26.2652C36.8249 26.3876 36.7637 26.5101 36.6412 26.6325C38.1107 26.3876 39.5802 25.959 40.9884 25.4692C42.1517 25.1018 43.6824 24.7345 44.6621 23.9385C45.5805 23.1426 44.1723 22.469 43.56 22.1629C41.4782 21.0608 39.0904 20.3873 36.7637 20.0199C36.8862 20.1424 36.9474 20.2648 37.0698 20.3873C36.8249 17.877 36.4576 15.3666 36.029 12.8563C35.7841 11.4481 35.4779 10.0398 35.0493 8.69281C34.7432 7.71316 34.437 6.73352 33.8248 5.93756C33.5186 5.57019 32.9676 6.12124 33.2737 6.4886C33.886 7.22334 34.1309 8.32544 34.3758 9.24385C34.7432 10.5909 35.0493 11.9379 35.2942 13.2849C35.7228 15.6115 36.029 17.9994 36.2739 20.3873C36.2739 20.5098 36.3963 20.7547 36.58 20.7547C38.6618 21.0608 40.8047 21.6731 42.7028 22.5915C43.0089 22.714 43.3151 22.8976 43.6212 23.0813C43.8049 23.2038 43.9886 23.3875 44.1723 23.4487C44.2947 23.4487 44.2947 23.3875 44.1723 23.3875C44.0498 23.3875 43.7437 23.6324 43.6212 23.6936C42.4579 24.2447 41.1721 24.6732 39.9475 25.0406C38.7842 25.408 37.6209 25.7141 36.4576 25.8978C36.2739 25.8978 36.1514 26.0815 36.1514 26.2652C36.1514 28.7755 35.9677 31.2858 35.6616 33.7962C35.4779 35.1432 35.2942 36.5514 34.9881 37.8984C34.7432 38.8781 34.4983 39.919 33.886 40.7761C34.0697 40.7761 34.3146 40.7761 34.4983 40.7149C33.4574 39.674 33.0288 38.0821 32.6614 36.6739C32.2328 34.8983 31.9267 33.0615 31.743 31.2246C31.5593 29.8164 31.4981 28.4081 31.3144 26.9999C31.3144 26.6938 31.3144 26.3264 31.192 26.0203C31.0083 25.6529 30.6409 25.5304 30.2736 25.4692C27.5795 24.7957 25.008 24.1222 22.6813 22.5915V23.265C25.1304 21.7343 28.3143 21.122 31.1308 20.9384C31.3144 20.9384 31.4981 20.7547 31.4981 20.571C31.4981 18.3668 31.8655 16.1014 32.1716 13.8972C32.3553 12.4277 32.6002 10.9582 32.9064 9.48876C33.1513 8.44789 33.3349 7.34579 33.8248 6.42738C34.0697 5.99878 33.3962 5.63142 33.1513 6.06001L33.2125 5.99878Z" fill="#161515"/>
<path d="M99.2162 78.7382C104.421 83.5139 106.686 90.8 105.523 97.78C104.972 101.025 103.808 104.209 101.91 106.903C99.8897 109.781 97.012 112.169 94.2568 114.311C82.746 123.067 68.1738 127.292 53.8465 127.782C46.7441 128.026 39.5804 127.292 32.6617 125.577C27.3961 124.23 22.0081 122.516 17.5384 119.271C8.17058 112.536 1.98658 101.515 0.945704 90.1265C0.210971 82.1669 1.92534 74.1461 5.17041 66.86C8.47671 59.329 13.4974 52.5327 20.2937 47.8182C21.8856 46.7161 23.5387 45.7364 25.2531 44.8792C25.6817 44.6343 25.2531 44.022 24.8858 44.2057C17.5384 47.8182 11.5381 53.7573 7.37462 60.7984C3.1499 68.0233 0.333426 76.4115 0.0272874 84.7997C-0.217624 91.5348 1.19062 98.2086 4.06832 104.27C6.51743 109.352 10.0074 114.005 14.2934 117.74C16.0077 119.271 17.9058 120.618 19.9263 121.781C22.3754 123.128 25.0694 124.108 27.7022 124.965C34.5597 127.231 41.8458 128.333 49.0707 128.516C56.4793 128.7 63.9491 127.904 71.1127 126.006C78.2763 124.169 85.1951 121.23 91.3791 117.128C97.1957 113.332 102.89 108.556 105.217 101.821C107.482 95.3309 106.808 87.8611 103.012 82.0445C102.094 80.575 100.931 79.2892 99.6448 78.1259C99.2775 77.8198 98.7264 78.3096 99.0938 78.677L99.2162 78.7382Z" fill="#161515"/>
<path d="M24.7644 44.2662C16.1925 51.3073 10.0697 61.165 7.49818 71.9411C6.70222 75.2474 6.02872 78.7986 6.15117 82.2274C6.27363 85.7786 7.19204 89.2686 8.47783 92.5136C9.76361 95.7587 11.478 98.8813 13.4985 101.698C15.0292 103.841 16.9885 105.616 19.0702 107.147C24.3358 111.004 30.6423 113.392 37.01 114.801C42.5204 115.964 48.031 116.209 53.6639 115.841C63.8889 115.168 74.3589 113.331 83.8492 109.29C88.1963 107.453 92.6047 105.004 95.7274 101.392C99.4622 97.1057 101.544 90.738 99.9521 85.1051C99.5235 83.6356 98.85 82.2886 97.9928 81.064C97.6867 80.6967 97.0744 81.064 97.3193 81.4314C101.054 86.6358 99.9521 93.7382 96.6458 98.8813C94.1354 102.8 90.0944 105.433 86.0534 107.453C81.4001 109.78 76.3794 111.311 71.2975 112.474C66.3993 113.576 61.4398 114.372 56.4804 114.862C51.7658 115.29 46.9901 115.474 42.2755 114.862C35.6629 114.066 29.0503 112.106 23.2337 108.8C20.7846 107.392 18.4579 105.8 16.4374 103.78C14.3557 101.698 12.7638 99.1262 11.3555 96.5546C9.64115 93.432 8.29414 90.0645 7.55941 86.6358C6.82468 83.0846 6.94713 79.6558 7.55941 76.1046C9.39624 64.8999 14.7843 54.4912 23.1113 46.7765C23.846 46.0418 24.6419 45.3683 25.4379 44.756C25.8053 44.4498 25.2542 43.8988 24.8869 44.2049L24.7644 44.2662Z" fill="#161515"/>
</svg>
